<?xml version="1.0" encoding="utf-8" standalone="no"?>
<!DOCTYPE svg PUBLIC "-//W3C//DTD SVG 1.1//EN"
  "http://www.w3.org/Graphics/SVG/1.1/DTD/svg11.dtd">
<!-- Created with matplotlib (http://matplotlib.org/) -->
<svg height="345pt" version="1.1" viewBox="0 0 460 345" width="460pt" xmlns="http://www.w3.org/2000/svg" xmlns:xlink="http://www.w3.org/1999/xlink">
 <defs>
  <style type="text/css">
*{stroke-linecap:butt;stroke-linejoin:round;}
  </style>
 </defs>
 <g id="figure_1">
  <g id="patch_1">
   <path d="M 0 345.6 
L 460.8 345.6 
L 460.8 0 
L 0 0 
z
" style="fill:#ffffff;"/>
  </g>
  <g id="axes_1">
   <g id="patch_2">
    <path d="M 57.6 307.584 
L 414.72 307.584 
L 414.72 41.472 
L 57.6 41.472 
z
" style="fill:#ffffff;"/>
   </g>
   <g id="matplotlib.axis_1">
    <g id="xtick_1">
     <g id="line2d_1">
      <defs>
       <path d="M 0 0 
L 0 3.5 
" id="mac8d728319" style="stroke:#000000;stroke-width:0.8;"/>
      </defs>
      <g>
       <use style="stroke:#000000;stroke-width:0.8;" x="73.547398" xlink:href="#mac8d728319" y="307.584"/>
      </g>
     </g>
     <g id="text_1">
      <!-- 0 -->
      <defs>
       <path d="M 31.78125 66.40625 
Q 24.171875 66.40625 20.328125 58.90625 
Q 16.5 51.421875 16.5 36.375 
Q 16.5 21.390625 20.328125 13.890625 
Q 24.171875 6.390625 31.78125 6.390625 
Q 39.453125 6.390625 43.28125 13.890625 
Q 47.125 21.390625 47.125 36.375 
Q 47.125 51.421875 43.28125 58.90625 
Q 39.453125 66.40625 31.78125 66.40625 
z
M 31.78125 74.21875 
Q 44.046875 74.21875 50.515625 64.515625 
Q 56.984375 54.828125 56.984375 36.375 
Q 56.984375 17.96875 50.515625 8.265625 
Q 44.046875 -1.421875 31.78125 -1.421875 
Q 19.53125 -1.421875 13.0625 8.265625 
Q 6.59375 17.96875 6.59375 36.375 
Q 6.59375 54.828125 13.0625 64.515625 
Q 19.53125 74.21875 31.78125 74.21875 
z
" id="DejaVuSans-30"/>
      </defs>
      <g transform="translate(70.366148 322.182437)scale(0.1 -0.1)">
       <use xlink:href="#DejaVuSans-30"/>
      </g>
     </g>
    </g>
    <g id="xtick_2">
     <g id="line2d_2">
      <g>
       <use style="stroke:#000000;stroke-width:0.8;" x="146.383469" xlink:href="#mac8d728319" y="307.584"/>
      </g>
     </g>
     <g id="text_2">
      <!-- 1 -->
      <defs>
       <path d="M 12.40625 8.296875 
L 28.515625 8.296875 
L 28.515625 63.921875 
L 10.984375 60.40625 
L 10.984375 69.390625 
L 28.421875 72.90625 
L 38.28125 72.90625 
L 38.28125 8.296875 
L 54.390625 8.296875 
L 54.390625 0 
L 12.40625 0 
z
" id="DejaVuSans-31"/>
      </defs>
      <g transform="translate(143.202219 322.182437)scale(0.1 -0.1)">
       <use xlink:href="#DejaVuSans-31"/>
      </g>
     </g>
    </g>
    <g id="xtick_3">
     <g id="line2d_3">
      <g>
       <use style="stroke:#000000;stroke-width:0.8;" x="219.219541" xlink:href="#mac8d728319" y="307.584"/>
      </g>
     </g>
     <g id="text_3">
      <!-- 2 -->
      <defs>
       <path d="M 19.1875 8.296875 
L 53.609375 8.296875 
L 53.609375 0 
L 7.328125 0 
L 7.328125 8.296875 
Q 12.9375 14.109375 22.625 23.890625 
Q 32.328125 33.6875 34.8125 36.53125 
Q 39.546875 41.84375 41.421875 45.53125 
Q 43.3125 49.21875 43.3125 52.78125 
Q 43.3125 58.59375 39.234375 62.25 
Q 35.15625 65.921875 28.609375 65.921875 
Q 23.96875 65.921875 18.8125 64.3125 
Q 13.671875 62.703125 7.8125 59.421875 
L 7.8125 69.390625 
Q 13.765625 71.78125 18.9375 73 
Q 24.125 74.21875 28.421875 74.21875 
Q 39.75 74.21875 46.484375 68.546875 
Q 53.21875 62.890625 53.21875 53.421875 
Q 53.21875 48.921875 51.53125 44.890625 
Q 49.859375 40.875 45.40625 35.40625 
Q 44.1875 33.984375 37.640625 27.21875 
Q 31.109375 20.453125 19.1875 8.296875 
z
" id="DejaVuSans-32"/>
      </defs>
      <g transform="translate(216.038291 322.182437)scale(0.1 -0.1)">
       <use xlink:href="#DejaVuSans-32"/>
      </g>
     </g>
    </g>
    <g id="xtick_4">
     <g id="line2d_4">
      <g>
       <use style="stroke:#000000;stroke-width:0.8;" x="292.055612" xlink:href="#mac8d728319" y="307.584"/>
      </g>
     </g>
     <g id="text_4">
      <!-- 3 -->
      <defs>
       <path d="M 40.578125 39.3125 
Q 47.65625 37.796875 51.625 33 
Q 55.609375 28.21875 55.609375 21.1875 
Q 55.609375 10.40625 48.1875 4.484375 
Q 40.765625 -1.421875 27.09375 -1.421875 
Q 22.515625 -1.421875 17.65625 -0.515625 
Q 12.796875 0.390625 7.625 2.203125 
L 7.625 11.71875 
Q 11.71875 9.328125 16.59375 8.109375 
Q 21.484375 6.890625 26.8125 6.890625 
Q 36.078125 6.890625 40.9375 10.546875 
Q 45.796875 14.203125 45.796875 21.1875 
Q 45.796875 27.640625 41.28125 31.265625 
Q 36.765625 34.90625 28.71875 34.90625 
L 20.21875 34.90625 
L 20.21875 43.015625 
L 29.109375 43.015625 
Q 36.375 43.015625 40.234375 45.921875 
Q 44.09375 48.828125 44.09375 54.296875 
Q 44.09375 59.90625 40.109375 62.90625 
Q 36.140625 65.921875 28.71875 65.921875 
Q 24.65625 65.921875 20.015625 65.03125 
Q 15.375 64.15625 9.8125 62.3125 
L 9.8125 71.09375 
Q 15.4375 72.65625 20.34375 73.4375 
Q 25.25 74.21875 29.59375 74.21875 
Q 40.828125 74.21875 47.359375 69.109375 
Q 53.90625 64.015625 53.90625 55.328125 
Q 53.90625 49.265625 50.4375 45.09375 
Q 46.96875 40.921875 40.578125 39.3125 
z
" id="DejaVuSans-33"/>
      </defs>
      <g transform="translate(288.874362 322.182437)scale(0.1 -0.1)">
       <use xlink:href="#DejaVuSans-33"/>
      </g>
     </g>
    </g>
    <g id="xtick_5">
     <g id="line2d_5">
      <g>
       <use style="stroke:#000000;stroke-width:0.8;" x="364.891684" xlink:href="#mac8d728319" y="307.584"/>
      </g>
     </g>
     <g id="text_5">
      <!-- 4 -->
      <defs>
       <path d="M 37.796875 64.3125 
L 12.890625 25.390625 
L 37.796875 25.390625 
z
M 35.203125 72.90625 
L 47.609375 72.90625 
L 47.609375 25.390625 
L 58.015625 25.390625 
L 58.015625 17.1875 
L 47.609375 17.1875 
L 47.609375 0 
L 37.796875 0 
L 37.796875 17.1875 
L 4.890625 17.1875 
L 4.890625 26.703125 
z
" id="DejaVuSans-34"/>
      </defs>
      <g transform="translate(361.710434 322.182437)scale(0.1 -0.1)">
       <use xlink:href="#DejaVuSans-34"/>
      </g>
     </g>
    </g>
    <g id="text_6">
     <!-- Absolute Percent Price Change -->
     <defs>
      <path d="M 34.1875 63.1875 
L 20.796875 26.90625 
L 47.609375 26.90625 
z
M 28.609375 72.90625 
L 39.796875 72.90625 
L 67.578125 0 
L 57.328125 0 
L 50.6875 18.703125 
L 17.828125 18.703125 
L 11.1875 0 
L 0.78125 0 
z
" id="DejaVuSans-41"/>
      <path d="M 48.6875 27.296875 
Q 48.6875 37.203125 44.609375 42.84375 
Q 40.53125 48.484375 33.40625 48.484375 
Q 26.265625 48.484375 22.1875 42.84375 
Q 18.109375 37.203125 18.109375 27.296875 
Q 18.109375 17.390625 22.1875 11.75 
Q 26.265625 6.109375 33.40625 6.109375 
Q 40.53125 6.109375 44.609375 11.75 
Q 48.6875 17.390625 48.6875 27.296875 
z
M 18.109375 46.390625 
Q 20.953125 51.265625 25.265625 53.625 
Q 29.59375 56 35.59375 56 
Q 45.5625 56 51.78125 48.09375 
Q 58.015625 40.1875 58.015625 27.296875 
Q 58.015625 14.40625 51.78125 6.484375 
Q 45.5625 -1.421875 35.59375 -1.421875 
Q 29.59375 -1.421875 25.265625 0.953125 
Q 20.953125 3.328125 18.109375 8.203125 
L 18.109375 0 
L 9.078125 0 
L 9.078125 75.984375 
L 18.109375 75.984375 
z
" id="DejaVuSans-62"/>
      <path d="M 44.28125 53.078125 
L 44.28125 44.578125 
Q 40.484375 46.53125 36.375 47.5 
Q 32.28125 48.484375 27.875 48.484375 
Q 21.1875 48.484375 17.84375 46.4375 
Q 14.5 44.390625 14.5 40.28125 
Q 14.5 37.15625 16.890625 35.375 
Q 19.28125 33.59375 26.515625 31.984375 
L 29.59375 31.296875 
Q 39.15625 29.25 43.1875 25.515625 
Q 47.21875 21.78125 47.21875 15.09375 
Q 47.21875 7.46875 41.1875 3.015625 
Q 35.15625 -1.421875 24.609375 -1.421875 
Q 20.21875 -1.421875 15.453125 -0.5625 
Q 10.6875 0.296875 5.421875 2 
L 5.421875 11.28125 
Q 10.40625 8.6875 15.234375 7.390625 
Q 20.0625 6.109375 24.8125 6.109375 
Q 31.15625 6.109375 34.5625 8.28125 
Q 37.984375 10.453125 37.984375 14.40625 
Q 37.984375 18.0625 35.515625 20.015625 
Q 33.0625 21.96875 24.703125 23.78125 
L 21.578125 24.515625 
Q 13.234375 26.265625 9.515625 29.90625 
Q 5.8125 33.546875 5.8125 39.890625 
Q 5.8125 47.609375 11.28125 51.796875 
Q 16.75 56 26.8125 56 
Q 31.78125 56 36.171875 55.265625 
Q 40.578125 54.546875 44.28125 53.078125 
z
" id="DejaVuSans-73"/>
      <path d="M 30.609375 48.390625 
Q 23.390625 48.390625 19.1875 42.75 
Q 14.984375 37.109375 14.984375 27.296875 
Q 14.984375 17.484375 19.15625 11.84375 
Q 23.34375 6.203125 30.609375 6.203125 
Q 37.796875 6.203125 41.984375 11.859375 
Q 46.1875 17.53125 46.1875 27.296875 
Q 46.1875 37.015625 41.984375 42.703125 
Q 37.796875 48.390625 30.609375 48.390625 
z
M 30.609375 56 
Q 42.328125 56 49.015625 48.375 
Q 55.71875 40.765625 55.71875 27.296875 
Q 55.71875 13.875 49.015625 6.21875 
Q 42.328125 -1.421875 30.609375 -1.421875 
Q 18.84375 -1.421875 12.171875 6.21875 
Q 5.515625 13.875 5.515625 27.296875 
Q 5.515625 40.765625 12.171875 48.375 
Q 18.84375 56 30.609375 56 
z
" id="DejaVuSans-6f"/>
      <path d="M 9.421875 75.984375 
L 18.40625 75.984375 
L 18.40625 0 
L 9.421875 0 
z
" id="DejaVuSans-6c"/>
      <path d="M 8.5 21.578125 
L 8.5 54.6875 
L 17.484375 54.6875 
L 17.484375 21.921875 
Q 17.484375 14.15625 20.5 10.265625 
Q 23.53125 6.390625 29.59375 6.390625 
Q 36.859375 6.390625 41.078125 11.03125 
Q 45.3125 15.671875 45.3125 23.6875 
L 45.3125 54.6875 
L 54.296875 54.6875 
L 54.296875 0 
L 45.3125 0 
L 45.3125 8.40625 
Q 42.046875 3.421875 37.71875 1 
Q 33.40625 -1.421875 27.6875 -1.421875 
Q 18.265625 -1.421875 13.375 4.4375 
Q 8.5 10.296875 8.5 21.578125 
z
M 31.109375 56 
z
" id="DejaVuSans-75"/>
      <path d="M 18.3125 70.21875 
L 18.3125 54.6875 
L 36.8125 54.6875 
L 36.8125 47.703125 
L 18.3125 47.703125 
L 18.3125 18.015625 
Q 18.3125 11.328125 20.140625 9.421875 
Q 21.96875 7.515625 27.59375 7.515625 
L 36.8125 7.515625 
L 36.8125 0 
L 27.59375 0 
Q 17.1875 0 13.234375 3.875 
Q 9.28125 7.765625 9.28125 18.015625 
L 9.28125 47.703125 
L 2.6875 47.703125 
L 2.6875 54.6875 
L 9.28125 54.6875 
L 9.28125 70.21875 
z
" id="DejaVuSans-74"/>
      <path d="M 56.203125 29.59375 
L 56.203125 25.203125 
L 14.890625 25.203125 
Q 15.484375 15.921875 20.484375 11.0625 
Q 25.484375 6.203125 34.421875 6.203125 
Q 39.59375 6.203125 44.453125 7.46875 
Q 49.3125 8.734375 54.109375 11.28125 
L 54.109375 2.78125 
Q 49.265625 0.734375 44.1875 -0.34375 
Q 39.109375 -1.421875 33.890625 -1.421875 
Q 20.796875 -1.421875 13.15625 6.1875 
Q 5.515625 13.8125 5.515625 26.8125 
Q 5.515625 40.234375 12.765625 48.109375 
Q 20.015625 56 32.328125 56 
Q 43.359375 56 49.78125 48.890625 
Q 56.203125 41.796875 56.203125 29.59375 
z
M 47.21875 32.234375 
Q 47.125 39.59375 43.09375 43.984375 
Q 39.0625 48.390625 32.421875 48.390625 
Q 24.90625 48.390625 20.390625 44.140625 
Q 15.875 39.890625 15.1875 32.171875 
z
" id="DejaVuSans-65"/>
      <path id="DejaVuSans-20"/>
      <path d="M 19.671875 64.796875 
L 19.671875 37.40625 
L 32.078125 37.40625 
Q 38.96875 37.40625 42.71875 40.96875 
Q 46.484375 44.53125 46.484375 51.125 
Q 46.484375 57.671875 42.71875 61.234375 
Q 38.96875 64.796875 32.078125 64.796875 
z
M 9.8125 72.90625 
L 32.078125 72.90625 
Q 44.34375 72.90625 50.609375 67.359375 
Q 56.890625 61.8125 56.890625 51.125 
Q 56.890625 40.328125 50.609375 34.8125 
Q 44.34375 29.296875 32.078125 29.296875 
L 19.671875 29.296875 
L 19.671875 0 
L 9.8125 0 
z
" id="DejaVuSans-50"/>
      <path d="M 41.109375 46.296875 
Q 39.59375 47.171875 37.8125 47.578125 
Q 36.03125 48 33.890625 48 
Q 26.265625 48 22.1875 43.046875 
Q 18.109375 38.09375 18.109375 28.8125 
L 18.109375 0 
L 9.078125 0 
L 9.078125 54.6875 
L 18.109375 54.6875 
L 18.109375 46.1875 
Q 20.953125 51.171875 25.484375 53.578125 
Q 30.03125 56 36.53125 56 
Q 37.453125 56 38.578125 55.875 
Q 39.703125 55.765625 41.0625 55.515625 
z
" id="DejaVuSans-72"/>
      <path d="M 48.78125 52.59375 
L 48.78125 44.1875 
Q 44.96875 46.296875 41.140625 47.34375 
Q 37.3125 48.390625 33.40625 48.390625 
Q 24.65625 48.390625 19.8125 42.84375 
Q 14.984375 37.3125 14.984375 27.296875 
Q 14.984375 17.28125 19.8125 11.734375 
Q 24.65625 6.203125 33.40625 6.203125 
Q 37.3125 6.203125 41.140625 7.25 
Q 44.96875 8.296875 48.78125 10.40625 
L 48.78125 2.09375 
Q 45.015625 0.34375 40.984375 -0.53125 
Q 36.96875 -1.421875 32.421875 -1.421875 
Q 20.0625 -1.421875 12.78125 6.34375 
Q 5.515625 14.109375 5.515625 27.296875 
Q 5.515625 40.671875 12.859375 48.328125 
Q 20.21875 56 33.015625 56 
Q 37.15625 56 41.109375 55.140625 
Q 45.0625 54.296875 48.78125 52.59375 
z
" id="DejaVuSans-63"/>
      <path d="M 54.890625 33.015625 
L 54.890625 0 
L 45.90625 0 
L 45.90625 32.71875 
Q 45.90625 40.484375 42.875 44.328125 
Q 39.84375 48.1875 33.796875 48.1875 
Q 26.515625 48.1875 22.3125 43.546875 
Q 18.109375 38.921875 18.109375 30.90625 
L 18.109375 0 
L 9.078125 0 
L 9.078125 54.6875 
L 18.109375 54.6875 
L 18.109375 46.1875 
Q 21.34375 51.125 25.703125 53.5625 
Q 30.078125 56 35.796875 56 
Q 45.21875 56 50.046875 50.171875 
Q 54.890625 44.34375 54.890625 33.015625 
z
" id="DejaVuSans-6e"/>
      <path d="M 9.421875 54.6875 
L 18.40625 54.6875 
L 18.40625 0 
L 9.421875 0 
z
M 9.421875 75.984375 
L 18.40625 75.984375 
L 18.40625 64.59375 
L 9.421875 64.59375 
z
" id="DejaVuSans-69"/>
      <path d="M 64.40625 67.28125 
L 64.40625 56.890625 
Q 59.421875 61.53125 53.78125 63.8125 
Q 48.140625 66.109375 41.796875 66.109375 
Q 29.296875 66.109375 22.65625 58.46875 
Q 16.015625 50.828125 16.015625 36.375 
Q 16.015625 21.96875 22.65625 14.328125 
Q 29.296875 6.6875 41.796875 6.6875 
Q 48.140625 6.6875 53.78125 8.984375 
Q 59.421875 11.28125 64.40625 15.921875 
L 64.40625 5.609375 
Q 59.234375 2.09375 53.4375 0.328125 
Q 47.65625 -1.421875 41.21875 -1.421875 
Q 24.65625 -1.421875 15.125 8.703125 
Q 5.609375 18.84375 5.609375 36.375 
Q 5.609375 53.953125 15.125 64.078125 
Q 24.65625 74.21875 41.21875 74.21875 
Q 47.75 74.21875 53.53125 72.484375 
Q 59.328125 70.75 64.40625 67.28125 
z
" id="DejaVuSans-43"/>
      <path d="M 54.890625 33.015625 
L 54.890625 0 
L 45.90625 0 
L 45.90625 32.71875 
Q 45.90625 40.484375 42.875 44.328125 
Q 39.84375 48.1875 33.796875 48.1875 
Q 26.515625 48.1875 22.3125 43.546875 
Q 18.109375 38.921875 18.109375 30.90625 
L 18.109375 0 
L 9.078125 0 
L 9.078125 75.984375 
L 18.109375 75.984375 
L 18.109375 46.1875 
Q 21.34375 51.125 25.703125 53.5625 
Q 30.078125 56 35.796875 56 
Q 45.21875 56 50.046875 50.171875 
Q 54.890625 44.34375 54.890625 33.015625 
z
" id="DejaVuSans-68"/>
      <path d="M 34.28125 27.484375 
Q 23.390625 27.484375 19.1875 25 
Q 14.984375 22.515625 14.984375 16.5 
Q 14.984375 11.71875 18.140625 8.90625 
Q 21.296875 6.109375 26.703125 6.109375 
Q 34.1875 6.109375 38.703125 11.40625 
Q 43.21875 16.703125 43.21875 25.484375 
L 43.21875 27.484375 
z
M 52.203125 31.203125 
L 52.203125 0 
L 43.21875 0 
L 43.21875 8.296875 
Q 40.140625 3.328125 35.546875 0.953125 
Q 30.953125 -1.421875 24.3125 -1.421875 
Q 15.921875 -1.421875 10.953125 3.296875 
Q 6 8.015625 6 15.921875 
Q 6 25.140625 12.171875 29.828125 
Q 18.359375 34.515625 30.609375 34.515625 
L 43.21875 34.515625 
L 43.21875 35.40625 
Q 43.21875 41.609375 39.140625 45 
Q 35.0625 48.390625 27.6875 48.390625 
Q 23 48.390625 18.546875 47.265625 
Q 14.109375 46.140625 10.015625 43.890625 
L 10.015625 52.203125 
Q 14.9375 54.109375 19.578125 55.046875 
Q 24.21875 56 28.609375 56 
Q 40.484375 56 46.34375 49.84375 
Q 52.203125 43.703125 52.203125 31.203125 
z
" id="DejaVuSans-61"/>
      <path d="M 45.40625 27.984375 
Q 45.40625 37.75 41.375 43.109375 
Q 37.359375 48.484375 30.078125 48.484375 
Q 22.859375 48.484375 18.828125 43.109375 
Q 14.796875 37.75 14.796875 27.984375 
Q 14.796875 18.265625 18.828125 12.890625 
Q 22.859375 7.515625 30.078125 7.515625 
Q 37.359375 7.515625 41.375 12.890625 
Q 45.40625 18.265625 45.40625 27.984375 
z
M 54.390625 6.78125 
Q 54.390625 -7.171875 48.1875 -13.984375 
Q 42 -20.796875 29.203125 -20.796875 
Q 24.46875 -20.796875 20.265625 -20.09375 
Q 16.0625 -19.390625 12.109375 -17.921875 
L 12.109375 -9.1875 
Q 16.0625 -11.328125 19.921875 -12.34375 
Q 23.78125 -13.375 27.78125 -13.375 
Q 36.625 -13.375 41.015625 -8.765625 
Q 45.40625 -4.15625 45.40625 5.171875 
L 45.40625 9.625 
Q 42.625 4.78125 38.28125 2.390625 
Q 33.9375 0 27.875 0 
Q 17.828125 0 11.671875 7.65625 
Q 5.515625 15.328125 5.515625 27.984375 
Q 5.515625 40.671875 11.671875 48.328125 
Q 17.828125 56 27.875 56 
Q 33.9375 56 38.28125 53.609375 
Q 42.625 51.21875 45.40625 46.390625 
L 45.40625 54.6875 
L 54.390625 54.6875 
z
" id="DejaVuSans-67"/>
     </defs>
     <g transform="translate(159.013906 335.860562)scale(0.1 -0.1)">
      <use xlink:href="#DejaVuSans-41"/>
      <use x="68.408203" xlink:href="#DejaVuSans-62"/>
      <use x="131.884766" xlink:href="#DejaVuSans-73"/>
      <use x="183.984375" xlink:href="#DejaVuSans-6f"/>
      <use x="245.166016" xlink:href="#DejaVuSans-6c"/>
      <use x="272.949219" xlink:href="#DejaVuSans-75"/>
      <use x="336.328125" xlink:href="#DejaVuSans-74"/>
      <use x="375.537109" xlink:href="#DejaVuSans-65"/>
      <use x="437.060547" xlink:href="#DejaVuSans-20"/>
      <use x="468.847656" xlink:href="#DejaVuSans-50"/>
      <use x="529.103516" xlink:href="#DejaVuSans-65"/>
      <use x="590.626953" xlink:href="#DejaVuSans-72"/>
      <use x="631.708984" xlink:href="#DejaVuSans-63"/>
      <use x="686.689453" xlink:href="#DejaVuSans-65"/>
      <use x="748.212891" xlink:href="#DejaVuSans-6e"/>
      <use x="811.591797" xlink:href="#DejaVuSans-74"/>
      <use x="850.800781" xlink:href="#DejaVuSans-20"/>
      <use x="882.587891" xlink:href="#DejaVuSans-50"/>
      <use x="942.875" xlink:href="#DejaVuSans-72"/>
      <use x="983.988281" xlink:href="#DejaVuSans-69"/>
      <use x="1011.771484" xlink:href="#DejaVuSans-63"/>
      <use x="1066.751953" xlink:href="#DejaVuSans-65"/>
      <use x="1128.275391" xlink:href="#DejaVuSans-20"/>
      <use x="1160.0625" xlink:href="#DejaVuSans-43"/>
      <use x="1229.886719" xlink:href="#DejaVuSans-68"/>
      <use x="1293.265625" xlink:href="#DejaVuSans-61"/>
      <use x="1354.544922" xlink:href="#DejaVuSans-6e"/>
      <use x="1417.923828" xlink:href="#DejaVuSans-67"/>
      <use x="1481.400391" xlink:href="#DejaVuSans-65"/>
     </g>
    </g>
   </g>
   <g id="matplotlib.axis_2">
    <g id="ytick_1">
     <g id="line2d_6">
      <defs>
       <path d="M 0 0 
L -3.5 0 
" id="m8f7ca2de34" style="stroke:#000000;stroke-width:0.8;"/>
      </defs>
      <g>
       <use style="stroke:#000000;stroke-width:0.8;" x="57.6" xlink:href="#m8f7ca2de34" y="301.836999"/>
      </g>
     </g>
     <g id="text_7">
      <!-- 0 -->
      <g transform="translate(44.2375 305.636218)scale(0.1 -0.1)">
       <use xlink:href="#DejaVuSans-30"/>
      </g>
     </g>
    </g>
    <g id="ytick_2">
     <g id="line2d_7">
      <g>
       <use style="stroke:#000000;stroke-width:0.8;" x="57.6" xlink:href="#m8f7ca2de34" y="266.721046"/>
      </g>
     </g>
     <g id="text_8">
      <!-- 2 -->
      <g transform="translate(44.2375 270.520265)scale(0.1 -0.1)">
       <use xlink:href="#DejaVuSans-32"/>
      </g>
     </g>
    </g>
    <g id="ytick_3">
     <g id="line2d_8">
      <g>
       <use style="stroke:#000000;stroke-width:0.8;" x="57.6" xlink:href="#m8f7ca2de34" y="231.605093"/>
      </g>
     </g>
     <g id="text_9">
      <!-- 4 -->
      <g transform="translate(44.2375 235.404312)scale(0.1 -0.1)">
       <use xlink:href="#DejaVuSans-34"/>
      </g>
     </g>
    </g>
    <g id="ytick_4">
     <g id="line2d_9">
      <g>
       <use style="stroke:#000000;stroke-width:0.8;" x="57.6" xlink:href="#m8f7ca2de34" y="196.48914"/>
      </g>
     </g>
     <g id="text_10">
      <!-- 6 -->
      <defs>
       <path d="M 33.015625 40.375 
Q 26.375 40.375 22.484375 35.828125 
Q 18.609375 31.296875 18.609375 23.390625 
Q 18.609375 15.53125 22.484375 10.953125 
Q 26.375 6.390625 33.015625 6.390625 
Q 39.65625 6.390625 43.53125 10.953125 
Q 47.40625 15.53125 47.40625 23.390625 
Q 47.40625 31.296875 43.53125 35.828125 
Q 39.65625 40.375 33.015625 40.375 
z
M 52.59375 71.296875 
L 52.59375 62.3125 
Q 48.875 64.0625 45.09375 64.984375 
Q 41.3125 65.921875 37.59375 65.921875 
Q 27.828125 65.921875 22.671875 59.328125 
Q 17.53125 52.734375 16.796875 39.40625 
Q 19.671875 43.65625 24.015625 45.921875 
Q 28.375 48.1875 33.59375 48.1875 
Q 44.578125 48.1875 50.953125 41.515625 
Q 57.328125 34.859375 57.328125 23.390625 
Q 57.328125 12.15625 50.6875 5.359375 
Q 44.046875 -1.421875 33.015625 -1.421875 
Q 20.359375 -1.421875 13.671875 8.265625 
Q 6.984375 17.96875 6.984375 36.375 
Q 6.984375 53.65625 15.1875 63.9375 
Q 23.390625 74.21875 37.203125 74.21875 
Q 40.921875 74.21875 44.703125 73.484375 
Q 48.484375 72.75 52.59375 71.296875 
z
" id="DejaVuSans-36"/>
      </defs>
      <g transform="translate(44.2375 200.288358)scale(0.1 -0.1)">
       <use xlink:href="#DejaVuSans-36"/>
      </g>
     </g>
    </g>
    <g id="ytick_5">
     <g id="line2d_10">
      <g>
       <use style="stroke:#000000;stroke-width:0.8;" x="57.6" xlink:href="#m8f7ca2de34" y="161.373186"/>
      </g>
     </g>
     <g id="text_11">
      <!-- 8 -->
      <defs>
       <path d="M 31.78125 34.625 
Q 24.75 34.625 20.71875 30.859375 
Q 16.703125 27.09375 16.703125 20.515625 
Q 16.703125 13.921875 20.71875 10.15625 
Q 24.75 6.390625 31.78125 6.390625 
Q 38.8125 6.390625 42.859375 10.171875 
Q 46.921875 13.96875 46.921875 20.515625 
Q 46.921875 27.09375 42.890625 30.859375 
Q 38.875 34.625 31.78125 34.625 
z
M 21.921875 38.8125 
Q 15.578125 40.375 12.03125 44.71875 
Q 8.5 49.078125 8.5 55.328125 
Q 8.5 64.0625 14.71875 69.140625 
Q 20.953125 74.21875 31.78125 74.21875 
Q 42.671875 74.21875 48.875 69.140625 
Q 55.078125 64.0625 55.078125 55.328125 
Q 55.078125 49.078125 51.53125 44.71875 
Q 48 40.375 41.703125 38.8125 
Q 48.828125 37.15625 52.796875 32.3125 
Q 56.78125 27.484375 56.78125 20.515625 
Q 56.78125 9.90625 50.3125 4.234375 
Q 43.84375 -1.421875 31.78125 -1.421875 
Q 19.734375 -1.421875 13.25 4.234375 
Q 6.78125 9.90625 6.78125 20.515625 
Q 6.78125 27.484375 10.78125 32.3125 
Q 14.796875 37.15625 21.921875 38.8125 
z
M 18.3125 54.390625 
Q 18.3125 48.734375 21.84375 45.5625 
Q 25.390625 42.390625 31.78125 42.390625 
Q 38.140625 42.390625 41.71875 45.5625 
Q 45.3125 48.734375 45.3125 54.390625 
Q 45.3125 60.0625 41.71875 63.234375 
Q 38.140625 66.40625 31.78125 66.40625 
Q 25.390625 66.40625 21.84375 63.234375 
Q 18.3125 60.0625 18.3125 54.390625 
z
" id="DejaVuSans-38"/>
      </defs>
      <g transform="translate(44.2375 165.172405)scale(0.1 -0.1)">
       <use xlink:href="#DejaVuSans-38"/>
      </g>
     </g>
    </g>
    <g id="ytick_6">
     <g id="line2d_11">
      <g>
       <use style="stroke:#000000;stroke-width:0.8;" x="57.6" xlink:href="#m8f7ca2de34" y="126.257233"/>
      </g>
     </g>
     <g id="text_12">
      <!-- 10 -->
      <g transform="translate(37.875 130.056452)scale(0.1 -0.1)">
       <use xlink:href="#DejaVuSans-31"/>
       <use x="63.623047" xlink:href="#DejaVuSans-30"/>
      </g>
     </g>
    </g>
    <g id="ytick_7">
     <g id="line2d_12">
      <g>
       <use style="stroke:#000000;stroke-width:0.8;" x="57.6" xlink:href="#m8f7ca2de34" y="91.14128"/>
      </g>
     </g>
     <g id="text_13">
      <!-- 12 -->
      <g transform="translate(37.875 94.940499)scale(0.1 -0.1)">
       <use xlink:href="#DejaVuSans-31"/>
       <use x="63.623047" xlink:href="#DejaVuSans-32"/>
      </g>
     </g>
    </g>
    <g id="ytick_8">
     <g id="line2d_13">
      <g>
       <use style="stroke:#000000;stroke-width:0.8;" x="57.6" xlink:href="#m8f7ca2de34" y="56.025327"/>
      </g>
     </g>
     <g id="text_14">
      <!-- 14 -->
      <g transform="translate(37.875 59.824545)scale(0.1 -0.1)">
       <use xlink:href="#DejaVuSans-31"/>
       <use x="63.623047" xlink:href="#DejaVuSans-34"/>
      </g>
     </g>
    </g>
    <g id="text_15">
     <!-- Volume (in millions) -->
     <defs>
      <path d="M 28.609375 0 
L 0.78125 72.90625 
L 11.078125 72.90625 
L 34.1875 11.53125 
L 57.328125 72.90625 
L 67.578125 72.90625 
L 39.796875 0 
z
" id="DejaVuSans-56"/>
      <path d="M 52 44.1875 
Q 55.375 50.25 60.0625 53.125 
Q 64.75 56 71.09375 56 
Q 79.640625 56 84.28125 50.015625 
Q 88.921875 44.046875 88.921875 33.015625 
L 88.921875 0 
L 79.890625 0 
L 79.890625 32.71875 
Q 79.890625 40.578125 77.09375 44.375 
Q 74.3125 48.1875 68.609375 48.1875 
Q 61.625 48.1875 57.5625 43.546875 
Q 53.515625 38.921875 53.515625 30.90625 
L 53.515625 0 
L 44.484375 0 
L 44.484375 32.71875 
Q 44.484375 40.625 41.703125 44.40625 
Q 38.921875 48.1875 33.109375 48.1875 
Q 26.21875 48.1875 22.15625 43.53125 
Q 18.109375 38.875 18.109375 30.90625 
L 18.109375 0 
L 9.078125 0 
L 9.078125 54.6875 
L 18.109375 54.6875 
L 18.109375 46.1875 
Q 21.1875 51.21875 25.484375 53.609375 
Q 29.78125 56 35.6875 56 
Q 41.65625 56 45.828125 52.96875 
Q 50 49.953125 52 44.1875 
z
" id="DejaVuSans-6d"/>
      <path d="M 31 75.875 
Q 24.46875 64.65625 21.28125 53.65625 
Q 18.109375 42.671875 18.109375 31.390625 
Q 18.109375 20.125 21.3125 9.0625 
Q 24.515625 -2 31 -13.1875 
L 23.1875 -13.1875 
Q 15.875 -1.703125 12.234375 9.375 
Q 8.59375 20.453125 8.59375 31.390625 
Q 8.59375 42.28125 12.203125 53.3125 
Q 15.828125 64.359375 23.1875 75.875 
z
" id="DejaVuSans-28"/>
      <path d="M 8.015625 75.875 
L 15.828125 75.875 
Q 23.140625 64.359375 26.78125 53.3125 
Q 30.421875 42.28125 30.421875 31.390625 
Q 30.421875 20.453125 26.78125 9.375 
Q 23.140625 -1.703125 15.828125 -13.1875 
L 8.015625 -13.1875 
Q 14.5 -2 17.703125 9.0625 
Q 20.90625 20.125 20.90625 31.390625 
Q 20.90625 42.671875 17.703125 53.65625 
Q 14.5 64.65625 8.015625 75.875 
z
" id="DejaVuSans-29"/>
     </defs>
     <g transform="translate(31.795312 224.403781)rotate(-90)scale(0.1 -0.1)">
      <use xlink:href="#DejaVuSans-56"/>
      <use x="68.298828" xlink:href="#DejaVuSans-6f"/>
      <use x="129.480469" xlink:href="#DejaVuSans-6c"/>
      <use x="157.263672" xlink:href="#DejaVuSans-75"/>
      <use x="220.642578" xlink:href="#DejaVuSans-6d"/>
      <use x="318.054688" xlink:href="#DejaVuSans-65"/>
      <use x="379.578125" xlink:href="#DejaVuSans-20"/>
      <use x="411.365234" xlink:href="#DejaVuSans-28"/>
      <use x="450.378906" xlink:href="#DejaVuSans-69"/>
      <use x="478.162109" xlink:href="#DejaVuSans-6e"/>
      <use x="541.541016" xlink:href="#DejaVuSans-20"/>
      <use x="573.328125" xlink:href="#DejaVuSans-6d"/>
      <use x="670.740234" xlink:href="#DejaVuSans-69"/>
      <use x="698.523438" xlink:href="#DejaVuSans-6c"/>
      <use x="726.306641" xlink:href="#DejaVuSans-6c"/>
      <use x="754.089844" xlink:href="#DejaVuSans-69"/>
      <use x="781.873047" xlink:href="#DejaVuSans-6f"/>
      <use x="843.054688" xlink:href="#DejaVuSans-6e"/>
      <use x="906.433594" xlink:href="#DejaVuSans-73"/>
      <use x="958.533203" xlink:href="#DejaVuSans-29"/>
     </g>
    </g>
   </g>
   <g id="line2d_14">
    <defs>
     <path d="M 0 3 
C 0.795609 3 1.55874 2.683901 2.12132 2.12132 
C 2.683901 1.55874 3 0.795609 3 0 
C 3 -0.795609 2.683901 -1.55874 2.12132 -2.12132 
C 1.55874 -2.683901 0.795609 -3 0 -3 
C -0.795609 -3 -1.55874 -2.683901 -2.12132 -2.12132 
C -2.683901 -1.55874 -3 -0.795609 -3 0 
C -3 0.795609 -2.683901 1.55874 -2.12132 2.12132 
C -1.55874 2.683901 -0.795609 3 0 3 
z
" id="m3b727849e0" style="stroke:#ff0000;"/>
    </defs>
    <g clip-path="url(#p1e38ec906d)">
     <use style="fill:#ff0000;stroke:#ff0000;" x="142.858504" xlink:href="#m3b727849e0" y="238.888791"/>
     <use style="fill:#ff0000;stroke:#ff0000;" x="161.023416" xlink:href="#m3b727849e0" y="222.986286"/>
     <use style="fill:#ff0000;stroke:#ff0000;" x="89.739734" xlink:href="#m3b727849e0" y="234.122889"/>
     <use style="fill:#ff0000;stroke:#ff0000;" x="116.072192" xlink:href="#m3b727849e0" y="239.33666"/>
     <use style="fill:#ff0000;stroke:#ff0000;" x="147.95597" xlink:href="#m3b727849e0" y="237.942662"/>
     <use style="fill:#ff0000;stroke:#ff0000;" x="132.245706" xlink:href="#m3b727849e0" y="262.956282"/>
     <use style="fill:#ff0000;stroke:#ff0000;" x="82.948154" xlink:href="#m3b727849e0" y="252.219808"/>
     <use style="fill:#ff0000;stroke:#ff0000;" x="153.327273" xlink:href="#m3b727849e0" y="235.643357"/>
     <use style="fill:#ff0000;stroke:#ff0000;" x="79.876312" xlink:href="#m3b727849e0" y="247.915154"/>
     <use style="fill:#ff0000;stroke:#ff0000;" x="75.489693" xlink:href="#m3b727849e0" y="284.939431"/>
     <use style="fill:#ff0000;stroke:#ff0000;" x="111.187515" xlink:href="#m3b727849e0" y="218.809472"/>
     <use style="fill:#ff0000;stroke:#ff0000;" x="161.535978" xlink:href="#m3b727849e0" y="232.559632"/>
     <use style="fill:#ff0000;stroke:#ff0000;" x="123.036911" xlink:href="#m3b727849e0" y="231.763606"/>
     <use style="fill:#ff0000;stroke:#ff0000;" x="153.27376" xlink:href="#m3b727849e0" y="251.903343"/>
     <use style="fill:#ff0000;stroke:#ff0000;" x="83.102802" xlink:href="#m3b727849e0" y="264.867328"/>
     <use style="fill:#ff0000;stroke:#ff0000;" x="124.880573" xlink:href="#m3b727849e0" y="251.692366"/>
     <use style="fill:#ff0000;stroke:#ff0000;" x="141.149161" xlink:href="#m3b727849e0" y="240.801013"/>
     <use style="fill:#ff0000;stroke:#ff0000;" x="192.163536" xlink:href="#m3b727849e0" y="249.939957"/>
     <use style="fill:#ff0000;stroke:#ff0000;" x="110.766348" xlink:href="#m3b727849e0" y="250.420747"/>
     <use style="fill:#ff0000;stroke:#ff0000;" x="112.855011" xlink:href="#m3b727849e0" y="254.292246"/>
     <use style="fill:#ff0000;stroke:#ff0000;" x="127.707553" xlink:href="#m3b727849e0" y="227.205415"/>
     <use style="fill:#ff0000;stroke:#ff0000;" x="185.250738" xlink:href="#m3b727849e0" y="202.627865"/>
     <use style="fill:#ff0000;stroke:#ff0000;" x="155.600451" xlink:href="#m3b727849e0" y="237.92233"/>
     <use style="fill:#ff0000;stroke:#ff0000;" x="81.118223" xlink:href="#m3b727849e0" y="251.106316"/>
     <use style="fill:#ff0000;stroke:#ff0000;" x="102.893878" xlink:href="#m3b727849e0" y="198.450489"/>
     <use style="fill:#ff0000;stroke:#ff0000;" x="121.428806" xlink:href="#m3b727849e0" y="249.114223"/>
     <use style="fill:#ff0000;stroke:#ff0000;" x="99.997806" xlink:href="#m3b727849e0" y="261.977987"/>
     <use style="fill:#ff0000;stroke:#ff0000;" x="110.269905" xlink:href="#m3b727849e0" y="260.99072"/>
     <use style="fill:#ff0000;stroke:#ff0000;" x="121.338889" xlink:href="#m3b727849e0" y="232.334188"/>
     <use style="fill:#ff0000;stroke:#ff0000;" x="94.716661" xlink:href="#m3b727849e0" y="264.336181"/>
     <use style="fill:#ff0000;stroke:#ff0000;" x="116.308301" xlink:href="#m3b727849e0" y="269.202568"/>
     <use style="fill:#ff0000;stroke:#ff0000;" x="120.831507" xlink:href="#m3b727849e0" y="270.049512"/>
     <use style="fill:#ff0000;stroke:#ff0000;" x="88.021232" xlink:href="#m3b727849e0" y="270.1632"/>
     <use style="fill:#ff0000;stroke:#ff0000;" x="111.24771" xlink:href="#m3b727849e0" y="266.221838"/>
     <use style="fill:#ff0000;stroke:#ff0000;" x="104.769514" xlink:href="#m3b727849e0" y="241.681387"/>
     <use style="fill:#ff0000;stroke:#ff0000;" x="110.932366" xlink:href="#m3b727849e0" y="245.83039"/>
     <use style="fill:#ff0000;stroke:#ff0000;" x="87.341237" xlink:href="#m3b727849e0" y="252.745178"/>
     <use style="fill:#ff0000;stroke:#ff0000;" x="79.045151" xlink:href="#m3b727849e0" y="259.229725"/>
     <use style="fill:#ff0000;stroke:#ff0000;" x="104.697416" xlink:href="#m3b727849e0" y="251.982881"/>
     <use style="fill:#ff0000;stroke:#ff0000;" x="78.587639" xlink:href="#m3b727849e0" y="249.368463"/>
     <use style="fill:#ff0000;stroke:#ff0000;" x="79.93893" xlink:href="#m3b727849e0" y="259.408377"/>
     <use style="fill:#ff0000;stroke:#ff0000;" x="112.905878" xlink:href="#m3b727849e0" y="248.803377"/>
     <use style="fill:#ff0000;stroke:#ff0000;" x="77.676947" xlink:href="#m3b727849e0" y="259.076461"/>
     <use style="fill:#ff0000;stroke:#ff0000;" x="97.948863" xlink:href="#m3b727849e0" y="253.398264"/>
     <use style="fill:#ff0000;stroke:#ff0000;" x="109.144843" xlink:href="#m3b727849e0" y="265.188533"/>
     <use style="fill:#ff0000;stroke:#ff0000;" x="79.507421" xlink:href="#m3b727849e0" y="246.635371"/>
     <use style="fill:#ff0000;stroke:#ff0000;" x="86.308864" xlink:href="#m3b727849e0" y="242.411589"/>
     <use style="fill:#ff0000;stroke:#ff0000;" x="123.956155" xlink:href="#m3b727849e0" y="232.813345"/>
     <use style="fill:#ff0000;stroke:#ff0000;" x="164.029842" xlink:href="#m3b727849e0" y="232.877414"/>
     <use style="fill:#ff0000;stroke:#ff0000;" x="241.401172" xlink:href="#m3b727849e0" y="170.502649"/>
     <use style="fill:#ff0000;stroke:#ff0000;" x="154.98444" xlink:href="#m3b727849e0" y="206.377195"/>
     <use style="fill:#ff0000;stroke:#ff0000;" x="138.545015" xlink:href="#m3b727849e0" y="216.097361"/>
     <use style="fill:#ff0000;stroke:#ff0000;" x="88.911805" xlink:href="#m3b727849e0" y="206.035131"/>
     <use style="fill:#ff0000;stroke:#ff0000;" x="141.544215" xlink:href="#m3b727849e0" y="207.889885"/>
     <use style="fill:#ff0000;stroke:#ff0000;" x="85.963897" xlink:href="#m3b727849e0" y="246.739612"/>
     <use style="fill:#ff0000;stroke:#ff0000;" x="116.386896" xlink:href="#m3b727849e0" y="235.262964"/>
     <use style="fill:#ff0000;stroke:#ff0000;" x="99.912992" xlink:href="#m3b727849e0" y="249.485048"/>
     <use style="fill:#ff0000;stroke:#ff0000;" x="143.504467" xlink:href="#m3b727849e0" y="247.223019"/>
     <use style="fill:#ff0000;stroke:#ff0000;" x="139.762008" xlink:href="#m3b727849e0" y="227.334308"/>
     <use style="fill:#ff0000;stroke:#ff0000;" x="126.077655" xlink:href="#m3b727849e0" y="248.432746"/>
     <use style="fill:#ff0000;stroke:#ff0000;" x="90.797697" xlink:href="#m3b727849e0" y="241.242104"/>
     <use style="fill:#ff0000;stroke:#ff0000;" x="116.742163" xlink:href="#m3b727849e0" y="254.610976"/>
     <use style="fill:#ff0000;stroke:#ff0000;" x="142.685874" xlink:href="#m3b727849e0" y="235.730743"/>
     <use style="fill:#ff0000;stroke:#ff0000;" x="108.293288" xlink:href="#m3b727849e0" y="256.532539"/>
     <use style="fill:#ff0000;stroke:#ff0000;" x="111.604483" xlink:href="#m3b727849e0" y="231.022203"/>
     <use style="fill:#ff0000;stroke:#ff0000;" x="119.4615" xlink:href="#m3b727849e0" y="247.93143"/>
     <use style="fill:#ff0000;stroke:#ff0000;" x="171.853227" xlink:href="#m3b727849e0" y="214.347463"/>
     <use style="fill:#ff0000;stroke:#ff0000;" x="142.229066" xlink:href="#m3b727849e0" y="227.536804"/>
     <use style="fill:#ff0000;stroke:#ff0000;" x="89.365038" xlink:href="#m3b727849e0" y="252.110422"/>
     <use style="fill:#ff0000;stroke:#ff0000;" x="110.385554" xlink:href="#m3b727849e0" y="240.33764"/>
     <use style="fill:#ff0000;stroke:#ff0000;" x="101.981281" xlink:href="#m3b727849e0" y="228.143503"/>
     <use style="fill:#ff0000;stroke:#ff0000;" x="132.06177" xlink:href="#m3b727849e0" y="251.04834"/>
     <use style="fill:#ff0000;stroke:#ff0000;" x="77.990099" xlink:href="#m3b727849e0" y="217.819535"/>
     <use style="fill:#ff0000;stroke:#ff0000;" x="156.056228" xlink:href="#m3b727849e0" y="205.939703"/>
     <use style="fill:#ff0000;stroke:#ff0000;" x="113.528067" xlink:href="#m3b727849e0" y="215.644488"/>
     <use style="fill:#ff0000;stroke:#ff0000;" x="107.768891" xlink:href="#m3b727849e0" y="232.652198"/>
     <use style="fill:#ff0000;stroke:#ff0000;" x="92.418927" xlink:href="#m3b727849e0" y="227.320437"/>
     <use style="fill:#ff0000;stroke:#ff0000;" x="129.190544" xlink:href="#m3b727849e0" y="258.785016"/>
     <use style="fill:#ff0000;stroke:#ff0000;" x="99.902555" xlink:href="#m3b727849e0" y="261.071978"/>
     <use style="fill:#ff0000;stroke:#ff0000;" x="108.072571" xlink:href="#m3b727849e0" y="247.39909"/>
     <use style="fill:#ff0000;stroke:#ff0000;" x="201.681223" xlink:href="#m3b727849e0" y="221.147193"/>
     <use style="fill:#ff0000;stroke:#ff0000;" x="151.251267" xlink:href="#m3b727849e0" y="240.401271"/>
     <use style="fill:#ff0000;stroke:#ff0000;" x="81.29852" xlink:href="#m3b727849e0" y="260.634293"/>
     <use style="fill:#ff0000;stroke:#ff0000;" x="85.347655" xlink:href="#m3b727849e0" y="239.171756"/>
     <use style="fill:#ff0000;stroke:#ff0000;" x="139.57053" xlink:href="#m3b727849e0" y="247.394209"/>
     <use style="fill:#ff0000;stroke:#ff0000;" x="146.66532" xlink:href="#m3b727849e0" y="213.390711"/>
     <use style="fill:#ff0000;stroke:#ff0000;" x="102.261229" xlink:href="#m3b727849e0" y="265.628747"/>
     <use style="fill:#ff0000;stroke:#ff0000;" x="236.628329" xlink:href="#m3b727849e0" y="244.956547"/>
     <use style="fill:#ff0000;stroke:#ff0000;" x="115.768808" xlink:href="#m3b727849e0" y="257.84131"/>
     <use style="fill:#ff0000;stroke:#ff0000;" x="76.833112" xlink:href="#m3b727849e0" y="266.608974"/>
     <use style="fill:#ff0000;stroke:#ff0000;" x="115.96818" xlink:href="#m3b727849e0" y="259.929463"/>
     <use style="fill:#ff0000;stroke:#ff0000;" x="145.811207" xlink:href="#m3b727849e0" y="253.540537"/>
     <use style="fill:#ff0000;stroke:#ff0000;" x="117.755575" xlink:href="#m3b727849e0" y="259.477345"/>
     <use style="fill:#ff0000;stroke:#ff0000;" x="82.990631" xlink:href="#m3b727849e0" y="273.031365"/>
     <use style="fill:#ff0000;stroke:#ff0000;" x="103.544764" xlink:href="#m3b727849e0" y="271.334914"/>
     <use style="fill:#ff0000;stroke:#ff0000;" x="121.008269" xlink:href="#m3b727849e0" y="266.14604"/>
     <use style="fill:#ff0000;stroke:#ff0000;" x="91.234043" xlink:href="#m3b727849e0" y="250.307534"/>
     <use style="fill:#ff0000;stroke:#ff0000;" x="148.491795" xlink:href="#m3b727849e0" y="260.988472"/>
     <use style="fill:#ff0000;stroke:#ff0000;" x="151.67324" xlink:href="#m3b727849e0" y="256.761951"/>
     <use style="fill:#ff0000;stroke:#ff0000;" x="81.3413" xlink:href="#m3b727849e0" y="260.683332"/>
     <use style="fill:#ff0000;stroke:#ff0000;" x="92.329052" xlink:href="#m3b727849e0" y="252.554112"/>
     <use style="fill:#ff0000;stroke:#ff0000;" x="132.141779" xlink:href="#m3b727849e0" y="261.290838"/>
     <use style="fill:#ff0000;stroke:#ff0000;" x="117.454213" xlink:href="#m3b727849e0" y="262.045708"/>
     <use style="fill:#ff0000;stroke:#ff0000;" x="163.44325" xlink:href="#m3b727849e0" y="250.519862"/>
     <use style="fill:#ff0000;stroke:#ff0000;" x="78.520841" xlink:href="#m3b727849e0" y="266.298145"/>
     <use style="fill:#ff0000;stroke:#ff0000;" x="205.268683" xlink:href="#m3b727849e0" y="258.816059"/>
     <use style="fill:#ff0000;stroke:#ff0000;" x="103.727527" xlink:href="#m3b727849e0" y="249.862492"/>
     <use style="fill:#ff0000;stroke:#ff0000;" x="76.404194" xlink:href="#m3b727849e0" y="264.534499"/>
     <use style="fill:#ff0000;stroke:#ff0000;" x="96.367248" xlink:href="#m3b727849e0" y="260.836034"/>
     <use style="fill:#ff0000;stroke:#ff0000;" x="112.518877" xlink:href="#m3b727849e0" y="246.589843"/>
     <use style="fill:#ff0000;stroke:#ff0000;" x="85.970607" xlink:href="#m3b727849e0" y="246.671364"/>
     <use style="fill:#ff0000;stroke:#ff0000;" x="112.652942" xlink:href="#m3b727849e0" y="236.25146"/>
     <use style="fill:#ff0000;stroke:#ff0000;" x="97.51846" xlink:href="#m3b727849e0" y="223.324874"/>
     <use style="fill:#ff0000;stroke:#ff0000;" x="98.678415" xlink:href="#m3b727849e0" y="246.896774"/>
     <use style="fill:#ff0000;stroke:#ff0000;" x="129.53849" xlink:href="#m3b727849e0" y="263.532658"/>
     <use style="fill:#ff0000;stroke:#ff0000;" x="146.292538" xlink:href="#m3b727849e0" y="240.090003"/>
     <use style="fill:#ff0000;stroke:#ff0000;" x="109.458685" xlink:href="#m3b727849e0" y="267.075946"/>
     <use style="fill:#ff0000;stroke:#ff0000;" x="75.929608" xlink:href="#m3b727849e0" y="249.457253"/>
     <use style="fill:#ff0000;stroke:#ff0000;" x="83.877065" xlink:href="#m3b727849e0" y="261.641067"/>
     <use style="fill:#ff0000;stroke:#ff0000;" x="147.11517" xlink:href="#m3b727849e0" y="255.538072"/>
     <use style="fill:#ff0000;stroke:#ff0000;" x="98.693091" xlink:href="#m3b727849e0" y="267.360701"/>
     <use style="fill:#ff0000;stroke:#ff0000;" x="104.856224" xlink:href="#m3b727849e0" y="249.09361"/>
     <use style="fill:#ff0000;stroke:#ff0000;" x="150.65591" xlink:href="#m3b727849e0" y="177.876701"/>
     <use style="fill:#ff0000;stroke:#ff0000;" x="114.963207" xlink:href="#m3b727849e0" y="251.203043"/>
     <use style="fill:#ff0000;stroke:#ff0000;" x="91.78516" xlink:href="#m3b727849e0" y="240.748883"/>
     <use style="fill:#ff0000;stroke:#ff0000;" x="109.70715" xlink:href="#m3b727849e0" y="242.754988"/>
     <use style="fill:#ff0000;stroke:#ff0000;" x="74.743196" xlink:href="#m3b727849e0" y="263.979421"/>
     <use style="fill:#ff0000;stroke:#ff0000;" x="178.350389" xlink:href="#m3b727849e0" y="257.314518"/>
     <use style="fill:#ff0000;stroke:#ff0000;" x="117.62122" xlink:href="#m3b727849e0" y="247.089911"/>
     <use style="fill:#ff0000;stroke:#ff0000;" x="197.720749" xlink:href="#m3b727849e0" y="230.92193"/>
     <use style="fill:#ff0000;stroke:#ff0000;" x="77.906941" xlink:href="#m3b727849e0" y="250.098032"/>
     <use style="fill:#ff0000;stroke:#ff0000;" x="93.735657" xlink:href="#m3b727849e0" y="264.548106"/>
     <use style="fill:#ff0000;stroke:#ff0000;" x="144.61279" xlink:href="#m3b727849e0" y="259.253112"/>
     <use style="fill:#ff0000;stroke:#ff0000;" x="130.04901" xlink:href="#m3b727849e0" y="260.341724"/>
     <use style="fill:#ff0000;stroke:#ff0000;" x="79.00825" xlink:href="#m3b727849e0" y="271.36025"/>
     <use style="fill:#ff0000;stroke:#ff0000;" x="78.227377" xlink:href="#m3b727849e0" y="262.655128"/>
     <use style="fill:#ff0000;stroke:#ff0000;" x="83.65434" xlink:href="#m3b727849e0" y="210.769446"/>
     <use style="fill:#ff0000;stroke:#ff0000;" x="77.045208" xlink:href="#m3b727849e0" y="251.44134"/>
     <use style="fill:#ff0000;stroke:#ff0000;" x="167.006525" xlink:href="#m3b727849e0" y="248.561323"/>
     <use style="fill:#ff0000;stroke:#ff0000;" x="116.466533" xlink:href="#m3b727849e0" y="257.553798"/>
     <use style="fill:#ff0000;stroke:#ff0000;" x="137.720148" xlink:href="#m3b727849e0" y="253.991601"/>
     <use style="fill:#ff0000;stroke:#ff0000;" x="122.273697" xlink:href="#m3b727849e0" y="259.979591"/>
     <use style="fill:#ff0000;stroke:#ff0000;" x="144.408647" xlink:href="#m3b727849e0" y="260.745628"/>
     <use style="fill:#ff0000;stroke:#ff0000;" x="74.697441" xlink:href="#m3b727849e0" y="243.107394"/>
     <use style="fill:#ff0000;stroke:#ff0000;" x="85.0297" xlink:href="#m3b727849e0" y="253.901774"/>
     <use style="fill:#ff0000;stroke:#ff0000;" x="113.405074" xlink:href="#m3b727849e0" y="268.780878"/>
     <use style="fill:#ff0000;stroke:#ff0000;" x="124.252436" xlink:href="#m3b727849e0" y="263.033186"/>
     <use style="fill:#ff0000;stroke:#ff0000;" x="226.502006" xlink:href="#m3b727849e0" y="251.022793"/>
     <use style="fill:#ff0000;stroke:#ff0000;" x="89.525925" xlink:href="#m3b727849e0" y="180.000777"/>
     <use style="fill:#ff0000;stroke:#ff0000;" x="117.717241" xlink:href="#m3b727849e0" y="253.966651"/>
     <use style="fill:#ff0000;stroke:#ff0000;" x="88.939171" xlink:href="#m3b727849e0" y="247.803942"/>
     <use style="fill:#ff0000;stroke:#ff0000;" x="88.510214" xlink:href="#m3b727849e0" y="246.50962"/>
     <use style="fill:#ff0000;stroke:#ff0000;" x="80.49287" xlink:href="#m3b727849e0" y="243.206438"/>
     <use style="fill:#ff0000;stroke:#ff0000;" x="182.110648" xlink:href="#m3b727849e0" y="226.161242"/>
     <use style="fill:#ff0000;stroke:#ff0000;" x="173.765694" xlink:href="#m3b727849e0" y="247.800009"/>
     <use style="fill:#ff0000;stroke:#ff0000;" x="106.720984" xlink:href="#m3b727849e0" y="261.508311"/>
     <use style="fill:#ff0000;stroke:#ff0000;" x="77.928515" xlink:href="#m3b727849e0" y="265.021891"/>
     <use style="fill:#ff0000;stroke:#ff0000;" x="152.360099" xlink:href="#m3b727849e0" y="259.190904"/>
     <use style="fill:#ff0000;stroke:#ff0000;" x="101.067324" xlink:href="#m3b727849e0" y="262.760599"/>
     <use style="fill:#ff0000;stroke:#ff0000;" x="92.669303" xlink:href="#m3b727849e0" y="275.304035"/>
     <use style="fill:#ff0000;stroke:#ff0000;" x="165.277724" xlink:href="#m3b727849e0" y="254.137701"/>
     <use style="fill:#ff0000;stroke:#ff0000;" x="79.326892" xlink:href="#m3b727849e0" y="253.773794"/>
     <use style="fill:#ff0000;stroke:#ff0000;" x="78.229305" xlink:href="#m3b727849e0" y="247.575109"/>
     <use style="fill:#ff0000;stroke:#ff0000;" x="132.588104" xlink:href="#m3b727849e0" y="254.396611"/>
     <use style="fill:#ff0000;stroke:#ff0000;" x="154.595379" xlink:href="#m3b727849e0" y="252.397424"/>
     <use style="fill:#ff0000;stroke:#ff0000;" x="91.496852" xlink:href="#m3b727849e0" y="252.370034"/>
     <use style="fill:#ff0000;stroke:#ff0000;" x="93.623104" xlink:href="#m3b727849e0" y="267.711755"/>
     <use style="fill:#ff0000;stroke:#ff0000;" x="133.774517" xlink:href="#m3b727849e0" y="245.141696"/>
     <use style="fill:#ff0000;stroke:#ff0000;" x="82.969014" xlink:href="#m3b727849e0" y="259.4177"/>
     <use style="fill:#ff0000;stroke:#ff0000;" x="103.85077" xlink:href="#m3b727849e0" y="267.719323"/>
     <use style="fill:#ff0000;stroke:#ff0000;" x="123.975848" xlink:href="#m3b727849e0" y="262.184715"/>
     <use style="fill:#ff0000;stroke:#ff0000;" x="101.83995" xlink:href="#m3b727849e0" y="262.593482"/>
     <use style="fill:#ff0000;stroke:#ff0000;" x="148.121213" xlink:href="#m3b727849e0" y="264.993306"/>
     <use style="fill:#ff0000;stroke:#ff0000;" x="79.731592" xlink:href="#m3b727849e0" y="259.825309"/>
     <use style="fill:#ff0000;stroke:#ff0000;" x="99.50904" xlink:href="#m3b727849e0" y="251.11139"/>
     <use style="fill:#ff0000;stroke:#ff0000;" x="398.487273" xlink:href="#m3b727849e0" y="53.568"/>
     <use style="fill:#ff0000;stroke:#ff0000;" x="192.417046" xlink:href="#m3b727849e0" y="111.147225"/>
     <use style="fill:#ff0000;stroke:#ff0000;" x="87.157659" xlink:href="#m3b727849e0" y="221.028062"/>
     <use style="fill:#ff0000;stroke:#ff0000;" x="191.459355" xlink:href="#m3b727849e0" y="213.72412"/>
     <use style="fill:#ff0000;stroke:#ff0000;" x="107.366539" xlink:href="#m3b727849e0" y="211.942336"/>
     <use style="fill:#ff0000;stroke:#ff0000;" x="110.10984" xlink:href="#m3b727849e0" y="212.068385"/>
     <use style="fill:#ff0000;stroke:#ff0000;" x="100.107622" xlink:href="#m3b727849e0" y="203.678517"/>
     <use style="fill:#ff0000;stroke:#ff0000;" x="154.169817" xlink:href="#m3b727849e0" y="237.317107"/>
     <use style="fill:#ff0000;stroke:#ff0000;" x="85.994894" xlink:href="#m3b727849e0" y="216.304177"/>
     <use style="fill:#ff0000;stroke:#ff0000;" x="186.775188" xlink:href="#m3b727849e0" y="202.101213"/>
     <use style="fill:#ff0000;stroke:#ff0000;" x="109.338314" xlink:href="#m3b727849e0" y="182.132772"/>
     <use style="fill:#ff0000;stroke:#ff0000;" x="139.887178" xlink:href="#m3b727849e0" y="241.057201"/>
     <use style="fill:#ff0000;stroke:#ff0000;" x="108.729433" xlink:href="#m3b727849e0" y="249.978655"/>
     <use style="fill:#ff0000;stroke:#ff0000;" x="133.72981" xlink:href="#m3b727849e0" y="251.777768"/>
     <use style="fill:#ff0000;stroke:#ff0000;" x="137.662588" xlink:href="#m3b727849e0" y="248.940786"/>
     <use style="fill:#ff0000;stroke:#ff0000;" x="128.470545" xlink:href="#m3b727849e0" y="252.482704"/>
     <use style="fill:#ff0000;stroke:#ff0000;" x="97.412834" xlink:href="#m3b727849e0" y="250.225433"/>
     <use style="fill:#ff0000;stroke:#ff0000;" x="76.327754" xlink:href="#m3b727849e0" y="257.145716"/>
     <use style="fill:#ff0000;stroke:#ff0000;" x="184.269576" xlink:href="#m3b727849e0" y="250.643435"/>
     <use style="fill:#ff0000;stroke:#ff0000;" x="112.192873" xlink:href="#m3b727849e0" y="257.621203"/>
     <use style="fill:#ff0000;stroke:#ff0000;" x="80.265466" xlink:href="#m3b727849e0" y="257.01001"/>
     <use style="fill:#ff0000;stroke:#ff0000;" x="168.325717" xlink:href="#m3b727849e0" y="261.975547"/>
     <use style="fill:#ff0000;stroke:#ff0000;" x="103.148036" xlink:href="#m3b727849e0" y="259.785944"/>
     <use style="fill:#ff0000;stroke:#ff0000;" x="174.260822" xlink:href="#m3b727849e0" y="239.761388"/>
     <use style="fill:#ff0000;stroke:#ff0000;" x="89.565954" xlink:href="#m3b727849e0" y="252.655404"/>
     <use style="fill:#ff0000;stroke:#ff0000;" x="114.045462" xlink:href="#m3b727849e0" y="247.83221"/>
     <use style="fill:#ff0000;stroke:#ff0000;" x="93.909648" xlink:href="#m3b727849e0" y="244.400117"/>
     <use style="fill:#ff0000;stroke:#ff0000;" x="173.571965" xlink:href="#m3b727849e0" y="233.900781"/>
     <use style="fill:#ff0000;stroke:#ff0000;" x="162.779481" xlink:href="#m3b727849e0" y="227.168122"/>
     <use style="fill:#ff0000;stroke:#ff0000;" x="121.949643" xlink:href="#m3b727849e0" y="249.259393"/>
     <use style="fill:#ff0000;stroke:#ff0000;" x="167.160673" xlink:href="#m3b727849e0" y="242.066996"/>
     <use style="fill:#ff0000;stroke:#ff0000;" x="106.696173" xlink:href="#m3b727849e0" y="238.134097"/>
     <use style="fill:#ff0000;stroke:#ff0000;" x="73.850137" xlink:href="#m3b727849e0" y="254.382494"/>
     <use style="fill:#ff0000;stroke:#ff0000;" x="132.119739" xlink:href="#m3b727849e0" y="222.315343"/>
     <use style="fill:#ff0000;stroke:#ff0000;" x="140.388731" xlink:href="#m3b727849e0" y="214.132185"/>
     <use style="fill:#ff0000;stroke:#ff0000;" x="121.837807" xlink:href="#m3b727849e0" y="143.230512"/>
     <use style="fill:#ff0000;stroke:#ff0000;" x="164.166345" xlink:href="#m3b727849e0" y="210.659147"/>
     <use style="fill:#ff0000;stroke:#ff0000;" x="91.390911" xlink:href="#m3b727849e0" y="229.415332"/>
     <use style="fill:#ff0000;stroke:#ff0000;" x="136.818091" xlink:href="#m3b727849e0" y="234.183429"/>
     <use style="fill:#ff0000;stroke:#ff0000;" x="76.106741" xlink:href="#m3b727849e0" y="252.510076"/>
     <use style="fill:#ff0000;stroke:#ff0000;" x="77.525803" xlink:href="#m3b727849e0" y="240.813093"/>
     <use style="fill:#ff0000;stroke:#ff0000;" x="148.659508" xlink:href="#m3b727849e0" y="240.749884"/>
     <use style="fill:#ff0000;stroke:#ff0000;" x="99.294634" xlink:href="#m3b727849e0" y="263.672876"/>
     <use style="fill:#ff0000;stroke:#ff0000;" x="73.832727" xlink:href="#m3b727849e0" y="234.889945"/>
     <use style="fill:#ff0000;stroke:#ff0000;" x="78.133511" xlink:href="#m3b727849e0" y="256.430737"/>
     <use style="fill:#ff0000;stroke:#ff0000;" x="83.87672" xlink:href="#m3b727849e0" y="257.395461"/>
     <use style="fill:#ff0000;stroke:#ff0000;" x="111.874645" xlink:href="#m3b727849e0" y="254.692902"/>
     <use style="fill:#ff0000;stroke:#ff0000;" x="88.62733" xlink:href="#m3b727849e0" y="246.293833"/>
     <use style="fill:#ff0000;stroke:#ff0000;" x="83.785171" xlink:href="#m3b727849e0" y="248.619071"/>
     <use style="fill:#ff0000;stroke:#ff0000;" x="176.547326" xlink:href="#m3b727849e0" y="232.655095"/>
     <use style="fill:#ff0000;stroke:#ff0000;" x="89.921398" xlink:href="#m3b727849e0" y="253.79209"/>
     <use style="fill:#ff0000;stroke:#ff0000;" x="90.701839" xlink:href="#m3b727849e0" y="264.143851"/>
     <use style="fill:#ff0000;stroke:#ff0000;" x="106.917277" xlink:href="#m3b727849e0" y="253.716713"/>
     <use style="fill:#ff0000;stroke:#ff0000;" x="99.4687" xlink:href="#m3b727849e0" y="295.488"/>
     <use style="fill:#ff0000;stroke:#ff0000;" x="100.34281" xlink:href="#m3b727849e0" y="256.574292"/>
     <use style="fill:#ff0000;stroke:#ff0000;" x="133.389891" xlink:href="#m3b727849e0" y="262.438603"/>
     <use style="fill:#ff0000;stroke:#ff0000;" x="122.290467" xlink:href="#m3b727849e0" y="269.90134"/>
     <use style="fill:#ff0000;stroke:#ff0000;" x="134.033511" xlink:href="#m3b727849e0" y="257.663501"/>
     <use style="fill:#ff0000;stroke:#ff0000;" x="117.789527" xlink:href="#m3b727849e0" y="265.814159"/>
     <use style="fill:#ff0000;stroke:#ff0000;" x="75.23485" xlink:href="#m3b727849e0" y="256.375834"/>
     <use style="fill:#ff0000;stroke:#ff0000;" x="196.358257" xlink:href="#m3b727849e0" y="232.379013"/>
     <use style="fill:#ff0000;stroke:#ff0000;" x="150.743249" xlink:href="#m3b727849e0" y="243.853625"/>
     <use style="fill:#ff0000;stroke:#ff0000;" x="149.914043" xlink:href="#m3b727849e0" y="224.553862"/>
     <use style="fill:#ff0000;stroke:#ff0000;" x="248.499212" xlink:href="#m3b727849e0" y="163.211191"/>
     <use style="fill:#ff0000;stroke:#ff0000;" x="86.167231" xlink:href="#m3b727849e0" y="241.803872"/>
     <use style="fill:#ff0000;stroke:#ff0000;" x="124.312103" xlink:href="#m3b727849e0" y="250.933475"/>
     <use style="fill:#ff0000;stroke:#ff0000;" x="181.896222" xlink:href="#m3b727849e0" y="248.707984"/>
     <use style="fill:#ff0000;stroke:#ff0000;" x="111.743225" xlink:href="#m3b727849e0" y="253.67942"/>
     <use style="fill:#ff0000;stroke:#ff0000;" x="79.469259" xlink:href="#m3b727849e0" y="250.401083"/>
     <use style="fill:#ff0000;stroke:#ff0000;" x="195.359108" xlink:href="#m3b727849e0" y="257.416864"/>
     <use style="fill:#ff0000;stroke:#ff0000;" x="92.143605" xlink:href="#m3b727849e0" y="255.996915"/>
     <use style="fill:#ff0000;stroke:#ff0000;" x="113.762272" xlink:href="#m3b727849e0" y="250.71523"/>
     <use style="fill:#ff0000;stroke:#ff0000;" x="130.366539" xlink:href="#m3b727849e0" y="245.557047"/>
     <use style="fill:#ff0000;stroke:#ff0000;" x="89.146917" xlink:href="#m3b727849e0" y="251.940619"/>
     <use style="fill:#ff0000;stroke:#ff0000;" x="137.036068" xlink:href="#m3b727849e0" y="245.389773"/>
    </g>
   </g>
   <g id="line2d_15">
    <path clip-path="url(#p1e38ec906d)" d="M 142.858504 237.019622 
L 398.487273 155.641087 
L 73.832727 258.99374 
L 137.036068 238.873175 
" style="fill:none;stroke:#0000ff;stroke-linecap:square;stroke-width:1.5;"/>
   </g>
   <g id="patch_3">
    <path d="M 57.6 307.584 
L 57.6 41.472 
" style="fill:none;stroke:#000000;stroke-linecap:square;stroke-linejoin:miter;stroke-width:0.8;"/>
   </g>
   <g id="patch_4">
    <path d="M 414.72 307.584 
L 414.72 41.472 
" style="fill:none;stroke:#000000;stroke-linecap:square;stroke-linejoin:miter;stroke-width:0.8;"/>
   </g>
   <g id="patch_5">
    <path d="M 57.6 307.584 
L 414.72 307.584 
" style="fill:none;stroke:#000000;stroke-linecap:square;stroke-linejoin:miter;stroke-width:0.8;"/>
   </g>
   <g id="patch_6">
    <path d="M 57.6 41.472 
L 414.72 41.472 
" style="fill:none;stroke:#000000;stroke-linecap:square;stroke-linejoin:miter;stroke-width:0.8;"/>
   </g>
   <g id="text_16">
    <!-- Price Change-Volume Scatterplot -->
    <defs>
     <path d="M 4.890625 31.390625 
L 31.203125 31.390625 
L 31.203125 23.390625 
L 4.890625 23.390625 
z
" id="DejaVuSans-2d"/>
     <path d="M 53.515625 70.515625 
L 53.515625 60.890625 
Q 47.90625 63.578125 42.921875 64.890625 
Q 37.9375 66.21875 33.296875 66.21875 
Q 25.25 66.21875 20.875 63.09375 
Q 16.5 59.96875 16.5 54.203125 
Q 16.5 49.359375 19.40625 46.890625 
Q 22.3125 44.4375 30.421875 42.921875 
L 36.375 41.703125 
Q 47.40625 39.59375 52.65625 34.296875 
Q 57.90625 29 57.90625 20.125 
Q 57.90625 9.515625 50.796875 4.046875 
Q 43.703125 -1.421875 29.984375 -1.421875 
Q 24.8125 -1.421875 18.96875 -0.25 
Q 13.140625 0.921875 6.890625 3.21875 
L 6.890625 13.375 
Q 12.890625 10.015625 18.65625 8.296875 
Q 24.421875 6.59375 29.984375 6.59375 
Q 38.421875 6.59375 43.015625 9.90625 
Q 47.609375 13.234375 47.609375 19.390625 
Q 47.609375 24.75 44.3125 27.78125 
Q 41.015625 30.8125 33.5 32.328125 
L 27.484375 33.5 
Q 16.453125 35.6875 11.515625 40.375 
Q 6.59375 45.0625 6.59375 53.421875 
Q 6.59375 63.09375 13.40625 68.65625 
Q 20.21875 74.21875 32.171875 74.21875 
Q 37.3125 74.21875 42.625 73.28125 
Q 47.953125 72.359375 53.515625 70.515625 
z
" id="DejaVuSans-53"/>
     <path d="M 18.109375 8.203125 
L 18.109375 -20.796875 
L 9.078125 -20.796875 
L 9.078125 54.6875 
L 18.109375 54.6875 
L 18.109375 46.390625 
Q 20.953125 51.265625 25.265625 53.625 
Q 29.59375 56 35.59375 56 
Q 45.5625 56 51.78125 48.09375 
Q 58.015625 40.1875 58.015625 27.296875 
Q 58.015625 14.40625 51.78125 6.484375 
Q 45.5625 -1.421875 35.59375 -1.421875 
Q 29.59375 -1.421875 25.265625 0.953125 
Q 20.953125 3.328125 18.109375 8.203125 
z
M 48.6875 27.296875 
Q 48.6875 37.203125 44.609375 42.84375 
Q 40.53125 48.484375 33.40625 48.484375 
Q 26.265625 48.484375 22.1875 42.84375 
Q 18.109375 37.203125 18.109375 27.296875 
Q 18.109375 17.390625 22.1875 11.75 
Q 26.265625 6.109375 33.40625 6.109375 
Q 40.53125 6.109375 44.609375 11.75 
Q 48.6875 17.390625 48.6875 27.296875 
z
" id="DejaVuSans-70"/>
    </defs>
    <g transform="translate(136.550625 35.472)scale(0.12 -0.12)">
     <use xlink:href="#DejaVuSans-50"/>
     <use x="60.287109" xlink:href="#DejaVuSans-72"/>
     <use x="101.400391" xlink:href="#DejaVuSans-69"/>
     <use x="129.183594" xlink:href="#DejaVuSans-63"/>
     <use x="184.164062" xlink:href="#DejaVuSans-65"/>
     <use x="245.6875" xlink:href="#DejaVuSans-20"/>
     <use x="277.474609" xlink:href="#DejaVuSans-43"/>
     <use x="347.298828" xlink:href="#DejaVuSans-68"/>
     <use x="410.677734" xlink:href="#DejaVuSans-61"/>
     <use x="471.957031" xlink:href="#DejaVuSans-6e"/>
     <use x="535.335938" xlink:href="#DejaVuSans-67"/>
     <use x="598.8125" xlink:href="#DejaVuSans-65"/>
     <use x="660.335938" xlink:href="#DejaVuSans-2d"/>
     <use x="696.341797" xlink:href="#DejaVuSans-56"/>
     <use x="764.640625" xlink:href="#DejaVuSans-6f"/>
     <use x="825.822266" xlink:href="#DejaVuSans-6c"/>
     <use x="853.605469" xlink:href="#DejaVuSans-75"/>
     <use x="916.984375" xlink:href="#DejaVuSans-6d"/>
     <use x="1014.396484" xlink:href="#DejaVuSans-65"/>
     <use x="1075.919922" xlink:href="#DejaVuSans-20"/>
     <use x="1107.707031" xlink:href="#DejaVuSans-53"/>
     <use x="1171.183594" xlink:href="#DejaVuSans-63"/>
     <use x="1226.164062" xlink:href="#DejaVuSans-61"/>
     <use x="1287.443359" xlink:href="#DejaVuSans-74"/>
     <use x="1326.652344" xlink:href="#DejaVuSans-74"/>
     <use x="1365.861328" xlink:href="#DejaVuSans-65"/>
     <use x="1427.384766" xlink:href="#DejaVuSans-72"/>
     <use x="1468.498047" xlink:href="#DejaVuSans-70"/>
     <use x="1531.974609" xlink:href="#DejaVuSans-6c"/>
     <use x="1559.757812" xlink:href="#DejaVuSans-6f"/>
     <use x="1620.939453" xlink:href="#DejaVuSans-74"/>
    </g>
   </g>
   <g id="legend_1">
    <g id="patch_7">
     <path d="M 294.630938 302.584 
L 407.72 302.584 
Q 409.72 302.584 409.72 300.584 
L 409.72 261.029937 
Q 409.72 259.029937 407.72 259.029937 
L 294.630938 259.029937 
Q 292.630938 259.029937 292.630938 261.029937 
L 292.630938 300.584 
Q 292.630938 302.584 294.630938 302.584 
z
" style="fill:#ffffff;opacity:0.8;stroke:#cccccc;stroke-linejoin:miter;"/>
    </g>
    <g id="line2d_16"/>
    <g id="line2d_17">
     <g>
      <use style="fill:#ff0000;stroke:#ff0000;" x="306.630938" xlink:href="#m3b727849e0" y="267.128375"/>
     </g>
    </g>
    <g id="text_17">
     <!-- Observations -->
     <defs>
      <path d="M 39.40625 66.21875 
Q 28.65625 66.21875 22.328125 58.203125 
Q 16.015625 50.203125 16.015625 36.375 
Q 16.015625 22.609375 22.328125 14.59375 
Q 28.65625 6.59375 39.40625 6.59375 
Q 50.140625 6.59375 56.421875 14.59375 
Q 62.703125 22.609375 62.703125 36.375 
Q 62.703125 50.203125 56.421875 58.203125 
Q 50.140625 66.21875 39.40625 66.21875 
z
M 39.40625 74.21875 
Q 54.734375 74.21875 63.90625 63.9375 
Q 73.09375 53.65625 73.09375 36.375 
Q 73.09375 19.140625 63.90625 8.859375 
Q 54.734375 -1.421875 39.40625 -1.421875 
Q 24.03125 -1.421875 14.8125 8.828125 
Q 5.609375 19.09375 5.609375 36.375 
Q 5.609375 53.65625 14.8125 63.9375 
Q 24.03125 74.21875 39.40625 74.21875 
z
" id="DejaVuSans-4f"/>
      <path d="M 2.984375 54.6875 
L 12.5 54.6875 
L 29.59375 8.796875 
L 46.6875 54.6875 
L 56.203125 54.6875 
L 35.6875 0 
L 23.484375 0 
z
" id="DejaVuSans-76"/>
     </defs>
     <g transform="translate(324.630938 270.628375)scale(0.1 -0.1)">
      <use xlink:href="#DejaVuSans-4f"/>
      <use x="78.710938" xlink:href="#DejaVuSans-62"/>
      <use x="142.1875" xlink:href="#DejaVuSans-73"/>
      <use x="194.287109" xlink:href="#DejaVuSans-65"/>
      <use x="255.810547" xlink:href="#DejaVuSans-72"/>
      <use x="296.923828" xlink:href="#DejaVuSans-76"/>
      <use x="356.103516" xlink:href="#DejaVuSans-61"/>
      <use x="417.382812" xlink:href="#DejaVuSans-74"/>
      <use x="456.591797" xlink:href="#DejaVuSans-69"/>
      <use x="484.375" xlink:href="#DejaVuSans-6f"/>
      <use x="545.556641" xlink:href="#DejaVuSans-6e"/>
      <use x="608.935547" xlink:href="#DejaVuSans-73"/>
     </g>
    </g>
    <g id="line2d_18">
     <path d="M 296.630938 288.44525 
L 316.630938 288.44525 
" style="fill:none;stroke:#0000ff;stroke-linecap:square;stroke-width:1.5;"/>
    </g>
    <g id="line2d_19"/>
    <g id="text_18">
     <!-- Linear fit   -->
     <defs>
      <path d="M 9.8125 72.90625 
L 19.671875 72.90625 
L 19.671875 8.296875 
L 55.171875 8.296875 
L 55.171875 0 
L 9.8125 0 
z
" id="DejaVuSans-4c"/>
      <path d="M 37.109375 75.984375 
L 37.109375 68.5 
L 28.515625 68.5 
Q 23.6875 68.5 21.796875 66.546875 
Q 19.921875 64.59375 19.921875 59.515625 
L 19.921875 54.6875 
L 34.71875 54.6875 
L 34.71875 47.703125 
L 19.921875 47.703125 
L 19.921875 0 
L 10.890625 0 
L 10.890625 47.703125 
L 2.296875 47.703125 
L 2.296875 54.6875 
L 10.890625 54.6875 
L 10.890625 58.5 
Q 10.890625 67.625 15.140625 71.796875 
Q 19.390625 75.984375 28.609375 75.984375 
z
" id="DejaVuSans-66"/>
     </defs>
     <g transform="translate(324.630938 285.3065)scale(0.1 -0.1)">
      <use xlink:href="#DejaVuSans-4c"/>
      <use x="55.712891" xlink:href="#DejaVuSans-69"/>
      <use x="83.496094" xlink:href="#DejaVuSans-6e"/>
      <use x="146.875" xlink:href="#DejaVuSans-65"/>
      <use x="208.398438" xlink:href="#DejaVuSans-61"/>
      <use x="269.677734" xlink:href="#DejaVuSans-72"/>
      <use x="310.791016" xlink:href="#DejaVuSans-20"/>
      <use x="342.578125" xlink:href="#DejaVuSans-66"/>
      <use x="377.783203" xlink:href="#DejaVuSans-69"/>
      <use x="405.566406" xlink:href="#DejaVuSans-74"/>
      <use x="444.775391" xlink:href="#DejaVuSans-20"/>
      <use x="476.5625" xlink:href="#DejaVuSans-20"/>
     </g>
     <!-- 1.321 x + 2.435 -->
     <defs>
      <path d="M 10.6875 12.40625 
L 21 12.40625 
L 21 0 
L 10.6875 0 
z
" id="DejaVuSans-2e"/>
      <path d="M 54.890625 54.6875 
L 35.109375 28.078125 
L 55.90625 0 
L 45.3125 0 
L 29.390625 21.484375 
L 13.484375 0 
L 2.875 0 
L 24.125 28.609375 
L 4.6875 54.6875 
L 15.28125 54.6875 
L 29.78125 35.203125 
L 44.28125 54.6875 
z
" id="DejaVuSans-78"/>
      <path d="M 46 62.703125 
L 46 35.5 
L 73.1875 35.5 
L 73.1875 27.203125 
L 46 27.203125 
L 46 0 
L 37.796875 0 
L 37.796875 27.203125 
L 10.59375 27.203125 
L 10.59375 35.5 
L 37.796875 35.5 
L 37.796875 62.703125 
z
" id="DejaVuSans-2b"/>
      <path d="M 10.796875 72.90625 
L 49.515625 72.90625 
L 49.515625 64.59375 
L 19.828125 64.59375 
L 19.828125 46.734375 
Q 21.96875 47.46875 24.109375 47.828125 
Q 26.265625 48.1875 28.421875 48.1875 
Q 40.625 48.1875 47.75 41.5 
Q 54.890625 34.8125 54.890625 23.390625 
Q 54.890625 11.625 47.5625 5.09375 
Q 40.234375 -1.421875 26.90625 -1.421875 
Q 22.3125 -1.421875 17.546875 -0.640625 
Q 12.796875 0.140625 7.71875 1.703125 
L 7.71875 11.625 
Q 12.109375 9.234375 16.796875 8.0625 
Q 21.484375 6.890625 26.703125 6.890625 
Q 35.15625 6.890625 40.078125 11.328125 
Q 45.015625 15.765625 45.015625 23.390625 
Q 45.015625 31 40.078125 35.4375 
Q 35.15625 39.890625 26.703125 39.890625 
Q 22.75 39.890625 18.8125 39.015625 
Q 14.890625 38.140625 10.796875 36.28125 
z
" id="DejaVuSans-35"/>
     </defs>
     <g transform="translate(324.630938 296.504312)scale(0.1 -0.1)">
      <use xlink:href="#DejaVuSans-31"/>
      <use x="63.623047" xlink:href="#DejaVuSans-2e"/>
      <use x="95.410156" xlink:href="#DejaVuSans-33"/>
      <use x="159.033203" xlink:href="#DejaVuSans-32"/>
      <use x="222.65625" xlink:href="#DejaVuSans-31"/>
      <use x="286.279297" xlink:href="#DejaVuSans-20"/>
      <use x="318.066406" xlink:href="#DejaVuSans-78"/>
      <use x="377.246094" xlink:href="#DejaVuSans-20"/>
      <use x="409.033203" xlink:href="#DejaVuSans-2b"/>
      <use x="492.822266" xlink:href="#DejaVuSans-20"/>
      <use x="524.609375" xlink:href="#DejaVuSans-32"/>
      <use x="588.232422" xlink:href="#DejaVuSans-2e"/>
      <use x="620.019531" xlink:href="#DejaVuSans-34"/>
      <use x="683.642578" xlink:href="#DejaVuSans-33"/>
      <use x="747.265625" xlink:href="#DejaVuSans-35"/>
     </g>
    </g>
   </g>
  </g>
 </g>
 <defs>
  <clipPath id="p1e38ec906d">
   <rect height="266.112" width="357.12" x="57.6" y="41.472"/>
  </clipPath>
 </defs>
</svg>
